<?xml version="1.0" encoding="UTF-8"?>
<svg id="Layer_1" data-name="Layer 1" xmlns="http://www.w3.org/2000/svg" viewBox="0 0 1488.71 1599.36">
  <defs>
    <style>
      .cls-1 {
        fill: #a145ff;
      }
    </style>
  </defs>
  <path class="cls-1" d="M744.26,.08c17.1-1.4,16.6,15.7,34.2,32.1-13.7,6.8-29.4,7.1-44.4,7.1-8.5-.1-16.3-3.7-24.1-6.6,13.9-13.1,11.7-30.5,34.3-32.6Z"/>
  <path class="cls-1" d="M702.36,40.18c3.3,4.3,8.4,6.8,13.4,8.5-23.4,32.6-9.4,122.4,2.5,142.7-3.4-.9-7.5,.1-10.1-2.6-13.4-11.9-59.6-35.5-47.2-88.3,7.1-30.9,29.2-48.6,41.4-60.3Z"/>
  <path class="cls-1" d="M766.06,49.28c7.5-1.4,14.8-4.1,21.3-8.3,24.5,22.8,47.8,49.2,41.6,86.7-5.3,32.8-29.7,45.8-44.7,58.1-4.3,3.1-.5,3.3-15.9,4,14.4-42.6,19.9-101.1-2.3-140.5Z"/>
  <path class="cls-1" d="M727.86,51.28c9.4,.1,19,.2,28.4-.7,16,38.1,15.1,83.9,4.6,123-1.4,5.7-3.6,11.3-5.1,17-7.7,.4-15.3,1.1-23,1.1-25.3-35.9-21.8-125.1-4.9-140.4Z"/>
  <path class="cls-1" d="M769.06,201.68c-10.3,16.6-10.7,50.9-2.3,66.3-21.1,8.7-39.2,5.4-45,.9,9.4-16.7,7.9-51-1.3-66.3,10.4,1,42.1-.2,48.6-.9Z"/>
  <path class="cls-1" d="M895.86,225.88c21.1-4,40.1,23.9,50.6,42,10.1,17.8,13.7,38.2,22.1,56.7-60.2,4.1-114.9,49.8-141.3,100.5-13.4-18.1-36.8-26.7-50.7-17.2-20.1,13.2-8.2,48,18.2,40.9,12.9-3.2,14.8-18.3,5.8-23.2-4.1-1.8-13.4,1.9-9.8,10.2-21.1,1.1-11.7-32.4,16.3-13.5,6.1,4.3,10,10.8,13.6,17.2-.4,1-19.7,50.7-19.7,50.8-31.1-28.2-44.4-73.4-44.9-115.4-.4-40.7,6-41.4,21.3-60.4,10.1-12.4,10.8-24.7,7.9-40.1,16.6-4,30.4-14.6,44.6-23.6,34.3-4.3,45.7,58.1,17,72.5-26.3,13.8-47.3-28.1-33.2-34.8,4.3-2,9.4-.7,13.4,1.6-7-.1-8.7,9.8-4.8,14.3,3.5,4.7,10.8,4.3,15,.8,11.3-7.6,2.5-29.4-12.8-32.2-17.9-3.8-37.7,14.7-24.1,41.4-7.5,4-12.9,11-17.6,17.9-21.1,33.5-1,60.9,18.2,68.3,25.2,9.8,48.1-14.4,44.1-35.7-2.5-13.7-18.4-22.9-31.6-18.6-9.1,2.8-14.5,13.2-12.3,22.4,2.6,15.2,26.3,5.5,13-5.3,7.2-1.3,17.4-6.9,18.5,6.3,1.7,20.5-29.8,32.5-44.2,2.4-7.3-14.4,2.5-40.2,18.5-47.4,28.1,32,67.3,8,69.5-35.6,46-29.3,57,19.3,33,25.8-8.7,2.4-10.1-1.9-11.1-5.9,1.4,1.5,2.8,3.4,5.1,3.6,4,.5,8.1-4.2,5.6-7.9,2.6-.5,1.2-3.2,.4-4.7-4.3-7.4-16.3-7.9-21.2-.9-5.9,8.2-3.5,21.6,5.7,26.4,9.7,5.1,22.2,3,30.4-3.9,17.2-14.1,12.5-43.5-8.9-51.4-12.1-4.4-30-.5-40.5,6.7-3.3-16.1-15.7-28.5-29.5-35.2,9.8-5.5,20.1-10,31-12.7-4.2,10-1.8,22.8,6.9,29.6,15.2,11.9,37.8-1.2,32.2-17-2.6-6.5-10.3-9.7-16.9-8.6-4.1,1.3-4.2,7.4-1.4,10,2.4,3.1,10.5,.3,5.2,6.4-9,8.1-22.5-6.8-14.9-18.3,2.1-2.5,4.6-5.6,8.3-5.2m-104.1,48.5c-4,.8-4.4,5.5-3.9,8.8,.9,4.6,8.4,4.8,10.1,.6,2.7-4.1-.7-11.3-6.2-9.4m90.1,58.1c-6.5,2.4-5.3,15,2.2,15.1,4.4-.3,9.6-3.9,9-8.8-.6-2.2-2.4-3.7-3.9-5.3-1.9-1.9-5-1.6-7.3-1m-22,9.9c-6.4,2.5-5.9,12.8,.4,15.2,5.6,2.4,12.1-2.8,11.6-8.7,.3-6-7.3-8.7-12-6.5m-5.9,17.7c-3.8,2.3-6.4,7.5-3.7,11.5,3.1,4.9,10.7,3.6,14-.4,2.6-4.4-4.6-14.7-10.3-11.1m-88.4,22c-6.5,2.3-5.8,13.6,.6,15.7,7.8,2.7,15.4-8.5,8.1-12.5-2.6-1.6-5.3-4.4-8.7-3.2Z"/>
  <path class="cls-1" d="M509.96,237.38c17.3-6,35.2-10.7,53.5-11.6-20.5,12.7-37.9,29.9-52.7,48.8-28.5,35.9-26.6,47.6-55.9,59,10.7-8.5,3.6-14.5,1.9-20.6-.9-1-3-1.8-2-3.4,4.8-5.3,22.2,4.6,30.6-8.2,6.2-10.9-5-16.3-4.8-22.4,3.5-12.3,31.9-1,27.8-27-.1-2.8-3.5-3.8-4.5-6.1,.1-3.7,3-7,6.1-8.5Z"/>
  <path class="cls-1" d="M931.06,225.98c12.6,1.4,24.9,4.3,37,7.8,.1,2.3,0,4.8,1.4,6.8,2.3,3.6,2.3,8.8-.6,12-4.5,4.6-6.3,14.1,1.5,18.2,8.1,4,9.1,1.4,24.3,5.6-2,2.6-3.8,5.5-6.7,7.2-3.1,1.9-6.8,4-7.4,8-1.5,5.7,2.8,11.2,7.8,13.5,4.4,2.7,11-.8,16.7,5-3.5,4.3-7.2,9.1-6.7,15.1-5.7-.7-11.4-1.1-17.1-1.1-13.9-30.4-23-74.5-50.2-98.1Z"/>
  <path class="cls-1" d="M599.96,226.68c9.7,1,19.1,3.7,28.1,7.4-10.8,4-20.5,11.1-28,19.9,3.6-6.9,7.5-14.3-.1-27.3Z"/>
  <path class="cls-1" d="M555.06,244.68c8.9-7,18.7-13,29.1-17.5,10.6,3.3,12.1,21-3.1,25.9-1.6,.6-3.3-.3-4.2-1.6,13.9-3.8-.1-19.3-8.1-11.5-12.8,12.2,6.1,42.3,32.3,12.2-4.4,7-7.7,14.7-8.6,23-22.4-20.2-62.5-7.8-60.7,24.8,1.7,32,57.8,28.8,50.1,.1-2.2-8.1-11.7-12.8-19.6-10.9-4.9,.9-7.5,8.5-3.2,11.6,4.9,3.9,9.7-3.6,11.8,3.6-.8,10.2-30.1,10.3-27.8-8.4,1-9.8,9.3-18,19-19.4,10.7-1.7,20.5,3.9,30.1,7.8,1.9,38.7,40.9,53.2,62.5,24.8,41.6-4.5,51.7,38.2,44.4,54.7-5.3,12.7-23.8,16.8-36.7,11.3-11.7-4.8-17.8-19.6-10.5-26.8,3.1-3.4,8.6-3.8,12.4-1.2-1.2,1.7-2.6,3.5-2.3,5.7,.3,3.1-.1,6.9,2.9,8.8,9.1,5.1,21.2-8.6,7.1-23.3-13.9-14.7-33.5-1.7-35.6,12.9-2.6,17.2,12,42.1,43.1,39.3,23.3-2.4,39.1-25,32.4-51-6.5-25.8-29.6-46.7-53.6-40.6,6.5-39.9-37.6-42.8-40.2-22-2.4,18,15.7,25.5,21.1,14.9,1.4-5-4.1-9-8.7-8.2,.9-2.1,1.1-5.4,3.8-5.9,4.3-1.1,8.2,2,10.1,5.6,10.3,16.7-11.2,35-28,24.6-13.4-7.9-18.3-35-4.8-50.2,7.8-9,18.9-17,31.4-16.2,18.4,9.3,34.1,23.4,53.6,30.8-11.9,59.9,69,43.2,18.1,163.3-19.7,47.7-20,49.5-25.9,58-.9-3.5-20.3-54.2-26.3-66.2,1.2-12.3,14.2-20.7,26-18.7,18.1,3.2,19.2,22.1,6.6,27.7-3.2,1.5-7.9-.5-7.9-4.4,.6-.6,1.3-1.1,2-1.6,8.5-5.9-7.8-20-14-4-4.3,12.6,7,26.8,22.2,23,15.5-4.1,23.9-24.7,15.4-38.4-9.3-15-37.5-24.9-56.8,4.4-36-58.5-98.4-100.1-168.9-89.9,16.1-18.3,31.2-51.6,68-80.9m116.1,30.3c-3.7,1.6-5.4,6.1-4.9,9.8,2.2,11.9,28,2.6,12.1-9.9-2.2-1.1-4.9-.4-7.2,.1m-85.6,45.7c-1.8,.7-3.5,1.4-5.1,2.4-2.9,2.1-3.4,6.8-.9,9.4,10.3,11.8,17.8-.2,13.6-8.6-1.3-2.6-4.7-4.4-7.6-3.2m22.4,8.9c-3.9,2.3-7.2,7.7-4.8,12.1,4.2,7.7,19.4,3.9,14.4-8.5-1.9-2.9-6.1-4.7-9.6-3.6m11.1,19.6c-6.3,2.5-4.6,12.1,1.2,14.2,5.2,2.8,11.2-2.4,10.8-7.8,.5-6.1-7.4-8.1-12-6.4m83.8,44.3c1.5,4.2,7,6.1,10.8,3.9,3.2-2.6,6.3-7.5,3.6-11.5-7-6.8-19-.9-14.4,7.6Z"/>
  <path class="cls-1" d="M978.56,237.18c18,6.2,35.2,14.3,51.9,23.2,5.7,3.6,10.5,10.9,7.6,17.7-.8,3.5-5.3,3.9-6.8,6.9-10.8,18,4.2,20.4,23.3,24.8-.5,2.8-3.3,4.6-5,6.9-1.8,2.8-5.9,2.9-7.3,6.1-2.3,4.2-4.5,8.9,3.8,15.8-10.4-4.6-21.2-8.1-32.2-10.8-.8-1.5-2.6-3-1.8-4.9,1.9-5.4,7.3-9.3,8.1-15.2,.2-6.1-5.2-10.6-10.8-11.8-4.9-1.8-9.5,1.6-16.2-2.9,16.6-7.7,19.5-25.5,2.1-28.1-5.6-1.2-12.3-.8-16.8-4.9,8.6-10.9,6.8-14.4,.1-22.8Z"/>
  <path class="cls-1" d="M424.56,279.48c21.4-12.6,43.1-24.9,65.9-34.7,1.6,2.8,10.5,10.4,2.1,14.9-8.9,4.6-28.2,5-25.9,19.2,.4,7.4,8.9,10.3,1.4,16-5.4,3.2-17.5-4.1-25.6,5.8-6.1,7.1,.5,14,1.1,16.2,.3,1.3,1,2.5,2.3,3.1-5,7.3-4.1,3.5-7.7,5.9-10.1,6.4-11.3,10.6-10.2,19.9-24.4,13.7-35.9,25-55.1,40.2,1.5-3.5-1.7-6.8-.1-10.2,3.3-8,11.7-4,22.3-10.7,8.5-5.7-1.5-16,2.6-20,4.1-1.7,8.7-1.2,13-2.5,9.6-2,9.3-15.6,4.3-19.7-1.5-1.3-3-2.9-2.6-5.1,1-.5,27.2-8.4,19.2-27.4-1.8-3.9-3.7-7.9-7-10.9Z"/>
  <path class="cls-1" d="M197.36,262.68c9.3,8.4,5.2,23.9-1.9,25.6-4.2,.8-6.8-4.8-11.1-3.4-4.6,1.6-6.3,8.6-2.7,11.9,1.8,1.7,3.9,2.9,6,4.1-.5,17.6,14.4,32.7,27.9,43.3-37.5-2.8-74-29.1-65.3-65.5,7.8-18.2,33.1-28.6,47.1-16Z"/>
  <path class="cls-1" d="M1314.26,258.08c14.9,4,24.5,16.9,24.9,23.6,1.1,14.5,2.6,20-9.2,35-14.4,17.6-33.6,25.3-56.4,27.7,2.7-3.1,27.7-19.9,27.6-43.3,2.2-1.6,4.7-2.8,6.5-4.9,3.2-3.9,.6-10.9-4.4-11.5-3.9-.3-11.3,10-16-3.1-6-16,10.3-28.3,27-23.5Z"/>
  <path class="cls-1" d="M1052.86,272.98c6.1,3.5,12.4,6.9,18.1,11,26.9,70.3,24.2,73,34.3,93.5-9-7.3-18-14.8-27.7-21.2,.9-14.5,9.3-21.7-21.3-28.6,2.8-2.3,5.5-4.7,8-7.4,6-5.4,4.3-16.4-2.6-20.3-7.4-4.2-24.2-4.6-18.7-8.6,5.8-7,8.9-7.5,9.9-18.4Z"/>
  <path class="cls-1" d="M797.96,283.78c-1.7,4.2-9.1,4-10.1-.6-2.3-14.8,16.2-8.7,10.1,.6Z"/>
  <path class="cls-1" d="M706.96,274.98c2,0,3.9,0,5.9-.1,9.4,10.7,43.7,16,60.8,.6,4.2,35.2-26.8,37.8-30.7,77-11.6-42.9-35.2-40.6-36-77.5Z"/>
  <path class="cls-1" d="M401.36,293.68c4.5-2.9,9.2-5.6,13.7-8.4,14.8,28.4-21.2,11-16.2,37.3,.2,2.3,2.6,3.3,3.9,5.1,.3,1.4-.1,2.8-.4,4.1-.7,1.7-2.7,.9-4.1,1-2.3-.3-14.7,2.1-14.3,11.7-.1,5.8,4.8,8,.2,11.2-6.2,3.2-28,2.2-24.3,20,3.4,19.3-5,13.1-2.8,22.1-24,17.3-45.8,24.1-69.3,24.6,1.9-2.2,50-24.1,103.1-109,4.1-6.1,8.8-12.3,10.5-19.7Z"/>
  <path class="cls-1" d="M1086.26,292.88c50.9,30.9,121.1,74.3,199.2,62.1,18.7-3.3,36.8-11.6,50.5-24.8-20,87.7-132,118.5-203.5,68.3,.1-5.2-11.9-17.5-18.4-32.3-10.3-24-16.9-49.5-27.8-73.3Z"/>
  <path class="cls-1" d="M385.66,303.28c-31.5,46.5-72,98.5-124.3,116.6-4.8,1.8-89.4-8.2-108.5-89.4,34,31.4,85.4,31.1,129.8,19.6,46.9-12,87.1-38.2,103-46.8Z"/>
  <path class="cls-1" d="M1048.46,339.38c9.2,1.8,14,2,16.1,8.5-5.3-2.9-10.7-5.6-16.1-8.5Z"/>
  <path class="cls-1" d="M743.06,388.08c3.5,45,19.4,87.5,54.1,116.4-4.1,3.1-8.6,5.8-13.4,7.8-3.9-5.3-9.1-9.6-13.1-14.8-37.3-47.8-31.8-35.8-47.6-5.5-3.7,7.2-10.2,13.3-11,21.8-.8,.7-1.5,1.3-2.3,2-6-1.7-12-3.7-17-7.6,12.3-10.3,44.1-82.8,50.3-120.1Z"/>
  <path class="cls-1" d="M323.66,429.28c4.6-1.6,9.1-3.4,13.4-5.4,37.4,66,8.4,40.6,108.3,293.7,83.9,211.8,97.9,204.1,128.1,271.5-9-.8-18.1,.1-27.1,.4-7.5-8.8-106.8-222.1-148.7-354.6-.3-1-63.1-192.3-74-205.6Z"/>
  <path class="cls-1" d="M1151.86,423.88c4.3,2,8.7,3.9,13.3,5.3-12,15.4-20,47.7-82.6,231.9-29.2,85.6-98.8,248.2-119.2,284-14.7,27.5-14.3,32.8-17.3,40.7-1.4,1.1-2.5,2.6-4,3.6-8.9-.2-17.9-1.1-26.8-.4,32.2-71.2,30.2-36.9,112.6-233.6,103.7-245.7,85.9-266.9,124-331.5Z"/>
  <path class="cls-1" d="M263.36,434.38c4.1,.3,8.3,.8,12.5,.9-22.1,94.3-63.7,182-102.8,269.1-24.3,53.5-46.1,108.1-71.3,161.2-19.6,41.4-48.2,78.7-61.3,123.1-9.3,1.1-18.6-.6-27.8,.2,101.6-189.5,249.8-547,250.7-554.5Z"/>
  <path class="cls-1" d="M1213.06,435.38c4.1-.4,8.3-.6,12.5-1.1,.5,4.2,142.6,353.7,250.8,554.5-9.3-1-18.7,1-28-.3-14.6-50.4-32.6-57.1-86.8-179.4-83.6-191.2-124.3-271-148.5-373.7Z"/>
  <path class="cls-1" d="M740.76,480.08c7.5,7.6,13.6,16.3,20.1,24.8,3.2,4.1,7.3,7.4,10.6,11.5-17.6,4.3-36,3.9-53.8,.7,.8-2.7,3.3-4.3,5-6.4,11.6-13.7,12.8-20.5,18.1-30.6Z"/>
  <path class="cls-1" d="M679.46,509.08c2.9,5.9,8.4,10.1,14.1,13-11.4,14.5-17.4,16.8-36.1,26.3,1-16.2,5.8-37.4,22-39.3Z"/>
  <path class="cls-1" d="M799.76,518.28c3.9-2.6,7.6-5.5,10.9-8.9,26.9,4.7,24.5,70.6,12.6,87.3-2.6-44.2,5.1-44.1-23.5-78.4Z"/>
  <path class="cls-1" d="M781.36,526.88c3.2-.8,6-2.5,9.1-3.7,5.4,7.5,12.6,13.8,16.4,22.3,5.7,12.8,3.7,27.1,4.7,40.7,.3,5.4,2,27.6-4.1,32-21.9,17.4-29.9,17.8-63.6,15.3,33.8-24.4,45.1-66.4,37.5-106.6Z"/>
  <path class="cls-1" d="M702.66,525.78c6.3,2.2,12.8,3.4,19.4,4.5-13.6,26.2-38.7,46.6-61.8,54.1-1.7-7.6-2.9-15.4-2.8-23.2,18-9.5,36.8-16.9,45.2-35.4Z"/>
  <path class="cls-1" d="M756.16,531.58c4.5-.4,9.1-1,13.5-1.8,6.9,42-6.8,80.6-44.6,102.2-20.4-1.2-27.9-6.8-38.2-10.8,35.6-16.5,78.1-54.9,69.3-89.6Z"/>
  <path class="cls-1" d="M732.96,531.68c5.1,.2,10.2,.2,15.4,.3,1,35.3-38.1,69.4-71.4,81.5-4.5-6.6-9.6-12.9-13.2-20.1,25.4-5,59.2-37.8,69.2-61.7Z"/>
  <path class="cls-1" d="M687.16,632.28c12.5,7.5,19.3,11.7,55.3,13.6,15.3,.6,35.8,3.7,58.4-9.3-4,27.6,35.8,38.6,13.1,101-29.9,18-57.4,13.8-74.8,14-18.4-.2-47.3,3.4-63.5-11.7-25-70,20.7-76.3,11.5-107.6Z"/>
  <path class="cls-1" d="M733.36,763.88c25.7,0,52.4,.5,76.4-10.2-2,18.4,10.6,31.8,4.5,52.6-7.9-9-13.4-19.8-18.8-30.3-2.1-4.3-8.9-3.9-11,.2-6.1,11.4-14.9,21.1-22.5,31.5-5.3-8.8-9-18.4-13.7-27.4-1.8-3.5-7.4-5-10-1.5-8.9,12-12.5,27.5-23.6,37.9-12.9-24.2-19.8-65.3-39.4-8.6-7-20.3,4.5-32.9,4.3-51.7,16.6,8.1,35.7,7.4,53.8,7.5Z"/>
  <path class="cls-1" d="M767.16,822.08c6.6-10.6,14.9-20,22.2-30.1,5.3,10,11.4,19.8,19.5,27.8-.6,1.4-1.2,2.8-1.8,4.3-22.6,4.8-99.1,14.9-123,4.2-1.8-3.9-3.6-7.9-5.6-11.7,4.4-7.9,8.1-16.3,13.8-23.4,10.2,21.3,14.2,42.8,23.5,36.5,12.2-6.2,18.1-19.2,24.2-30.7,.8-1,.9-2.9,2.4-3.1,4.3,9.2,8.5,18.6,14.8,26.6,2.3,3.2,8.1,3.4,10-.4Z"/>
  <path class="cls-1" d="M800.46,838.98c-4.3,11.5-.3,23.6,2.7,34.9-30.6,9.8-58.9,28.9-66,39.9-25.2-18.1-43.7-41.5-47.5-72.6,9.2,2.9,18.8,4.7,28.5,4.4,18.7,.3,73-4.3,82.3-6.6Z"/>
  <path class="cls-1" d="M686.36,871.38c15.8,46.6,75.3,72.7,121.6,89.6-.8,12.8-.8,25.6,0,38.4-33.4-9.6-69.5-12.2-97.3-28.6-19.9-11.5-30.5-29.1-30.4-32.8-.9-22.3-.4-45,6.1-66.6m10,43.3c-10.4,2.4-14.4,17-7.3,24.8,5.9,5.8,16.8,4.6,21.5-2.2,7.3-10.3,1-26.5-14.2-22.6m40.4,26.2c-10.6,2.2-15.2,17.8-6.7,24.9,6.3,5.9,17.1,4.8,22.4-1.9,8.1-9.4,.2-27.2-15.7-23m27.4,27.3c-2.4,7.4,1.9,16.6,9.5,18.8,16.3,3.5,25.4-16.1,12.2-26-6.5-5-18.8-1.2-21.7,7.2Z"/>
  <path class="cls-1" d="M805.76,884.68c4,20.9,3.4,42.2,2.5,63.3-21.2-8.4-43-16.2-62.4-28.4,27.4-25,31.4-22.2,59.9-34.9Z"/>
  <path class="cls-1" d="M681.16,960.98c11.5,16.4,30.1,25.6,48.6,31.8-.8,25.6,8.6,49.8,15.7,73.9,2.8,8.6,6.4,17.6,13.7,23.4-12.3,10.1-25.1,19.5-38.6,27.9-9.8-18.9-30.9-53.7-51-60.2,13.6-45.5,12.3-69.2,11.6-96.8Z"/>
  <path class="cls-1" d="M740.26,995.78c5.2,1.4,66.9,15.7,68.7,15.6,.3,3.5,1.9,7,.5,10.4-7.4,23.6-23.2,43.6-41.1,60.3-13.9-12.5-26.6-68.2-28.1-86.3Z"/>
  <path class="cls-1" d="M38.96,999.08c1.5-.3,2.8,.7,4.1,1.2,.4,.2,197.3,5.7,197.8,5.7,70.5-.1,114.7-6.2,194.6-3.2,21.5,.6,43.1,1.5,64.6,1.8,38.1,1.8,97.2-13.7,95,15.1-.7,1-10.1,24.2-26.8,20.9-2.2-.4-4,1.2-5.4,2.6-19.5,2.3-39-1.4-58.5-1.4-1,0-397.2,7.9-464-3-4.2-.8-8.5-.7-12.7-.8-9.7-3.6-32.6-17.3-26.7-26.4,7.1-12.2,18-10.9,38-12.5Z"/>
  <path class="cls-1" d="M1448.46,999.08c23,.6,32.9,2.4,37.6,9.7,6.4,7.5,.3,13.7-8.5,20.1-16.4,11.4-18.3,8.6-22.2,9.1-146.2,10.6-495.4,5.8-533.4,2.5-2.5-.3-11.5,3.4-22.5-10.9-2.5-3.1-3.6-7-5.6-10.4-2.1-26.4,52-15.1,84.5-14.5,41.8-.3,83.6-3,125.5-2.7,46.8-.4,121.1,6.8,194.5,2.8,143.3-6.4,142.6-1.4,150.1-5.7Z"/>
  <path class="cls-1" d="M801.56,1061.98c5-6.9,9.2-14.4,12.9-22.2,4,17.6,10.1,34.7,16.4,51.6-21.4,39.2-74,63.1-111,81.6-46.7,22.3-69.3,25.6-111.2,28,7.1-13.1,13.4-26.7,19.7-40.3,3.2-.3,6-1.9,9-2.8,35.5-12.4,52.6-3.5,101.4-37.4,23.4-16.6,46-35.1,62.8-58.5m5.4,14.8c-10.1,2.1-15.1,15.7-8.9,23.8,4.9,5.7,14.5,5.1,19.8,.3,9.8-9.1,5.3-27.9-10.9-24.1m-34.6,30.1c-8.5,2.9-11.2,15-5.5,21.6,3.9,4.5,10.9,4.8,15.9,2.1,12.1-6.9,6.7-29.4-10.4-23.7m-36.1,22c-17,3.4-13.8,24.4-1.6,27.8,24.3,5,23.5-32.7,1.6-27.8m-43.8,21.1c-18.2,3.7-14.7,35.5,6.4,26.5,13.8-6,12.4-30.6-6.4-26.5m-55.1,25.5c-.5,10.5,8.5,17.4,14.4,14.6,10.8-4.7,17.7-12.3,11.6-21.9-6.5-12-26.2-7.6-26,7.3Z"/>
  <path class="cls-1" d="M37.06,1048.68c95.4,10.2,330.3,7.8,449.6,5.1,24.3,.1,48.5,4.8,72.8,2.9-5.6,14.9-9.6,30.4-16.5,44.8-19.3,42.5-107.4,120.6-197.7,135.9-48.9,8.6-127.9,1.3-176.9-23-17.7-8.5-32.8-21.1-47-34.4,16.4,2.1,28.8-11.1,32.8-14.4,11.8,58.1,75.8,48.6,75.8,18.5,.6-16.3-20.9-30.1-34.1-19.7-9.9,8.3-2,13.7,2.1,13.2,4,0,7.6-10.3,16.7-.2,13.6,14.5-24.6,32.7-41.8,4.8-5.1-8.5-7.8-18.2-10-27.7-.8-2.6,.7-4.9,1.2-7.3,1-4.2,.7-8.5,.1-12.7,.8-4.1,2.1-8.3,4.1-12,6.6,16.8,25,27.6,27.6,17.6,3-9.2,10.9-16.7,6-27.8,7.9-1.4,16-4.5,21-11.1,4.7-5.4-9.1-12.9-15.1-14.3,47-14.4,79.7,23.8,57.4,52.3-11.9,15.2-26.1,6-30.9,4.5-3.7-1.2-5.3-5-7.3-7.9-2.4-3.5-.4-7.9,2.2-10.7,1.3,1,2.4,2.6,4.2,2.9,3.8,.9,11.7-1.8,6.2-11.5-9.5-15.4-21.5-8.1-25.8,.7-6.4,13.9,3.6,36.5,22.3,42.2,20.6,6.4,44.4-9.8,47.9-32.6,1.8-10.1-2.9-19.3,15.8-33.1,70.2-48.9,132.6,24.4,108.1,53.5-12.3,15.3-50.8,13.2-52.4-17.1-.5-5.6,3.9-9.8,5.9-14.6,1.4,.6,2.8,1.4,4,2.3-.5,1.8-1.5,3.7-.7,5.6,1,4.3,7.1,6.7,10.4,3.5,18.8-19.2-34.8-42-32.4,4-33.8-12.5-79.5,32.6-63.9,71.6,11.5,30.5,49.4,36.6,70.7,13.2,10.3-10.8,18.9-29.9,10-41.6-9.3-12.4-36.1-13.9-46.7,5.5-6.3,10.6-2.9,22.9,6.7,23.9,11.9,1.5,12.3-10.5,6.8-11.6-1.9-.4-5.3-.8-4.1-3.6,9.1-18.9,37.8-12.3,26.1,10.2-7.1,12.4-24.9,21.8-38.2,18.5-20.1-4.2-27.7-30.6-17.3-49.6,6.2-10.8,18.9-23.3,32.3-27.6,25.3-8,16.8,19.3,48.9,27.6-20.9,30.8,18.3,65.9,48.4,38.8,17-15.7-1.1-34.6-17.8-31.2-5.2,1.1-8.7,6.5-8.3,11.6,.4,3.8,5,5.9,8.3,4.4,2.2-.8,2.7-3.7,4.9-4.5,7.8-.6,15.2,12.7-6.9,17.3-19.6,4.4-32.5-20.1-18.3-34.8,34.3-1.2,53.8-28.2,37.2-58.4,2.3-26.4,63.8-41,77.5-6.6,13.3,32.2-40.2,58-45.4,24.3-1.4-2.5,.9-4.7,3.2-5.4,.6,1.5,.9,3.3,2.5,4.2,4.2,2.6,10.5-.7,10.6-5.7,0-14.3-13.9-21.2-24.3-10.1-11.3,12-3.7,39.7,16.8,44.7,29.5,7.4,62.2-25.6,48.3-56.1-20.7-45.8-85.6-25.9-97.5-2.1-44.9-52.2-108.9-33.1-132,1.7-13.9-32.1-68-33.7-100.8-10.8-7.7-16.6-32.3-26.7-50.5-28.7-25.5-3.1-31.3,17-25.5,28.6,7,15.5,26,14.5,29.6-.1,1.2-5.4-6.6-9.4-10.3-5.3-1.3,1.5-2.3,5.4-4.9,3.7-3.7-2.9-5.3-9.3-1.8-12.9,6.5-7.1,49.7,2.2,53.8,23.2-6.2,6.7-10.9,15-12.6,24.1-22.1-26.8-70.1-18.4-65,7.7,3.4,18,27.7,30.9,41.8,18.3,10.5-9.2,1.4-27.9-10.5-18-5.2,4.5-4.5,6.1-2.3,10.8-2.6-.6-5.3-.9-7.8-1.9-7.8-3.9-12.3-14.3-4.9-18,15.7-8.9,38.9,1.3,43,15.2,4,13.9-11.7,29.6-24.3,31.8-9.4,1.8-23.8-4.4-25.5-6.4-35.9-38.2-27.9-34.8-32.1-41.1-14.5-21.5-26.9-45.4-33.5-71m480.3,24.6c-13.9,3.4-6.5,23.7,6.3,22.6,8.3-.9,14.9-13.9,10.4-18.3-4.2-4.5-11-5.9-16.7-4.3m-439.7,13.2c-2.2,.3-4.2,1.9-4.7,4-1,3.3-3.6,6.4-2.8,10.1,2.8,12.1,23.5,9.7,25.4-4.8,2.3-9.4-8.4-10-17.9-9.3m241.1,3.7c-12.9,4.6-11.8,21.5-1.4,24.9,11,4.2,25.1-14.4,14.6-23.1-3.7-3-8.9-3.2-13.2-1.8m-80.3,124.8c9,11.8,29.1,0,22.7-12.8-1.4-3-4.4-4.5-6.6-6.8-10.2-9.9-25,8.3-16.1,19.6Z"/>
  <path class="cls-1" d="M1424.46,1051.38c9.2,.3,18.3-1.8,27.5-2.7-6.2,22.9-16.5,44.5-29.1,64.6-10,16.7-7.6,18.6-45.1,56.9-30.2,29-56.1,54.2-129.4,65.7-97.2,14.8-177.7-1.4-268-89.1,2.1-8.9,6.7-17.1,12.8-23.8,6.8,29.3,32.3,38.4,34,18.9,.6-8.3,1.3-16.9-1.2-25,23.6,9.1,34.3-8.4,28.1-20.7,25.9,.3,37.8,16.4,38.8,17.1,18.9,19.3-9,51-34.3,36.6-3.4-1.9-6.3-5.5-5.5-9.6,.8-2.8-.7-5.7,.2-8.4,1-1.2,2.5,0,3.5,.5,2.2,1,2.2,4,4.3,5.2,3.8,2.7,10.7,.2,10.4-4.9-2-17.8-17.7-21-27.3-8-17.5,22.3,12.9,55.9,47.7,35.9,1.8,27,25.8,41.1,48.1,40.5,33.5-1.5,58.9-31.8,50.7-57.5-1.5-5.1-4.6-9.3-7.6-13.5-9.9-30.4,23.2-61.9,55.3-50.4,17.8,6.1,29,24.2,21.5,42.7-8.9,23-30.3,16.8-34.6,5.9-.2-3.9,.2-8.3,2.8-11.4,1.1,1.9,2,4.6,4.5,5,4.3,1.1,8.9-3.2,8.2-7.6-.8-5.7-5.7-10.9-11.6-11.1-12.9-.2-24.5,18.2-13.3,34.6,5.6,8.1,14.9,13.8,24.9,13.8-4,10.1-2,21.7,3.7,30.8,.8,1.5,2.4,3,2,4.9-1.5,12.3-1.1,28.2-17.6,33.6-11.8,3.6-30.7,3.5-31.7-14.8-.7-18,13-19.6,17.9-12.8-10.2,2.6-2.5,16.2,4.8,14.4,6.1-2.8,10.3-10.1,8.5-16.8-3.2-12.8-24.2-20.3-35.9-8.2-10.6,10-10.9,32.6-.5,43.9,14.5,15.2,62.3,14,65.1-29.8,47.8,38.1,122.3-23.5,107.1-63.6,22,.6,43.7-19.9,39.9-39.9-2.8-16.7-23.1-28.9-44.3-22.7-18,5.4-21.6,21.2-18.3,30.2,6.2,16.2,34.8,14.5,30.5-3.5-1-3.1-4.7-5.2-7.8-3.7-2.9,1.6-4.1,5.4-7.5,6.2-9.6-1.3-1.4-23.3,20.7-17.5,30.9,7.6,9,43-17.7,39.7-2.8,.2-4.1-2.5-5.8-4-16.9-16.1-50.7-25.8-68.5-13-5.1,3.5-8.3,8.9-11.1,14.2,12-66.8-105.9-74.2-103.4,1.9-28.6-15.9-53.8,.9-51.2,24,1.4,13.5,18.4,22.6,34.8,10,18.8-15.3-13.1-27.6-7.4-9.3-3.4,4.5-12,4.1-13.9-1.6-4.3-13.5,11.3-23.6,31.1-12.5,45.8,26.3-20,81.6-53.1,47.2-10.4-11.6-10.7-24.6-7.9-27.2,10.2-11.5,13.1-33.2-4.9-50.6,10.3-28.1,46.7-24.6,52.4-15.7,2.3,5-.5,11.7-5.6,13.6,1.3-5.9-3.1-11.7-10.9-6.4-11.9,8,2,21.2,12.7,18.5,14.3-3.3,23-23.7,11.9-34.6-12.8-13.4-56.8-14.5-68.5,18.5-14.3-8.3-31.3-12.3-47.7-9.9-1.4-6.5-8.5-25.4-15.2-23.6-12.2,2.8-19.5,12-22.3,24.4-3.7-4.7-7.7-9.4-13.1-12.3-6.2-3.5-21.5-7.1-22.9,.7-2.5,14.8,4.6,31.3,18.6,37.7-7.3,7.1-13.6,15.6-16.3,25.6-27-26.9-31.8-53.7-41.6-80.3,22,1.7,43.8-1.8,65.7-2.8,1,0,229.6,6.5,396.4-1.2,10.5-1.2,21.5-1.8,32.5-1.9m-8.1,14.3c-14.4,3.1-7.6,23.9,4.7,22.8,4.6-.5,6.3-5.3,9.1-8.4,6.7-8.4-5.5-16.1-13.8-14.4m-96,1.6c-12.1,4.1-10.1,26.3,2.3,22.5,23.1-7.6,8.9-26.1-2.3-22.5m-46.3,5.1c-4.2,1.7-8.2,13.3-1.9,18.9,8.5,7.4,25.3-2.6,20.3-10.1-7.6-7.6-15-10.3-18.4-8.8m-198.5,99.5c-5.8,1.2-13.1,13.1-7.9,19.5,8.6,10.8,28.3,5.9,25.8-6.6-1.4-8-9.8-14.6-17.9-12.9m70.7,46.5c1.7,9.7,17.1,9.2,20.7,6.7,4.9-3.4,5.8-10.6,3-15.6-6.6-13.3-26.6-3.7-23.7,8.9Z"/>
  <path class="cls-1" d="M635.06,1145.68c11.5-25.8,22.7-51.8,31.6-78.6,20.5,15.9,31.9,33.9,43.6,56.9-29,15.5-48.1,13.2-75.2,21.7Z"/>
  <path class="cls-1" d="M1014.46,1093.18c.8-8.1,3.7-17,11.3-21.1,2.7,4.5,4.8,9.5,5.7,14.7-5.9,1.6-11.5,3.9-17,6.4Z"/>
  <path class="cls-1" d="M979.26,1080.48c11.1,1.9,16,9.6,22.5,19.8-3.1,2-6.2,4.1-9.1,6.5-7-7.1-13-16-13.4-26.3Z"/>
  <path class="cls-1" d="M186.86,1099.48c3.3-3.4,7.2-5.9,11.3-8.3,3.9,1.1,8-.5,15.5,7.3-6.3,4.2-14.3,4.9-21.6,3.7-2-.6-3.5-1.8-5.2-2.7Z"/>
  <path class="cls-1" d="M1022.16,1102.78c6-2.6,12.3-4.5,18.8-5.5,1.6,2.9,7.5,8.9-2,10.1-6.1,.8-11.4-2.8-16.8-4.6Z"/>
  <path class="cls-1" d="M803.56,1137.58c12.3-9.8,23.2-21.3,32.1-34.3,9.6,23.9,20.1,47.5,31.1,70.9-23.9-6.3-48.5-16.8-63.2-36.6Z"/>
  <path class="cls-1" d="M178.96,1108.98c2.4,1.5,15.4,3.6,13.5,12.1-.8,3.8-2.8,7.1-4.6,10.5-6.8-4.1-11.2-11.8-10.8-19.8,.6-.9,1.3-1.9,1.9-2.8Z"/>
  <path class="cls-1" d="M1000.76,1115.68c2.3-2,4.7-3.7,7.2-5.4,10.8,10.4,7.6,20.9,7.3,29.2-2.4-2.6-8.6-6.4-14.5-23.8Z"/>
  <path class="cls-1" d="M1352.56,1140.18c6.5,35.3-73,86.1-100.3,34.2-6-11.1-3.9-25-.3-25.8,9.3-4.4,15.7-13.1,20-22.2-7.2,46.4,56.5,39,45.2,12.7-4.1-10.4-19.8-9.9-21.9-4.4-1.8,4.5,1.9,10.3,7,9.6-.9,1.3-2,3.6-4,2.6-4.5-1.6-12.4,1-13.6-13.5-3.1-36.7,62.5-21.6,67.9,6.8Z"/>
  <path class="cls-1" d="M746.16,1173.28c16.8-8.7,33.3-18,48.8-28.9,14.5,28.9,68.6,43.5,78.9,44.1,4.8,10.4,10.8,20.3,16.2,30.4-30.6,26.3-74.3,36.1-86.7,77.7-14.6-3-29-6.7-43.3-10.7,4.3-36.1-4-81-13.9-112.6Z"/>
  <path class="cls-1" d="M735.56,1178.78c1.8,28.7,12.7,17.1,12.7,103.8-96-26.1-134.9-68-135.1-71.3,42.6,3.6,83.7-12.9,122.4-32.5Z"/>
  <path class="cls-1" d="M588.06,1241.78c3.4-9.2,8.2-17.9,12.8-26.6,8.5,10.5,18.7,20,19,20.4-15.8-1.1-21.2,19.5-11.6,26.2,10,6.6,25.3-2.2,22.3-17.7,57.9,44,170.3,67.5,225.5,70.2,20.1,.6,24.7,1.4,46.4-9-1.1,4.4-2.3,8.7-3.6,13.1-6.8-4-16.7-1-20.4,5.8-4,8,1.1,18.6,9.7,20.9-16.6,8.6-67.4,5.1-88.9,1.4-2.1-3-5.8-2.4-8.7-1.5-21.2-3.6-49.4-11.1-50.4-11.4-37.1-10.3-132.1-32-152.1-91.8m52.2,23.5c-9.6,1.5-13.5,15.2-7.1,22.1,4.5,5.8,13.4,6.2,19.4,2.8,11.8-7.8,5.9-28.9-12.3-24.9m45.5,19.4c-12.6,4.4-11.8,18.5-4.1,25,7.3,6,19.8,1.8,22.6-7,2.8-9.6-5.2-22.7-18.5-18m59,17.7c-10,2.3-14.2,15.9-8.1,23.9,5.3,6.6,16.8,5.8,21.8-.9,7.4-9.6,2.6-26.6-13.7-23m50.4,9.3c-15.9,4.3-12.7,24.3-.5,27.8,6.2,1.4,13.4-1.3,16.8-6.8,5.4-9.2-2.4-24.9-16.3-21m38.5,19.6c.8,22.5,32.8,18.7,28.1-4.9-3.7-2.8-7.6-5.3-11.4-8-3.9-3.2-16.6,2.4-16.7,12.9Z"/>
  <path class="cls-1" d="M895.46,1229.48c8.6,18.9,15.3,33.4,9.7,63.8-28.2,11.6-59.6,10.5-89.1,5.6,11.7-36,54-43.8,79.4-69.4Z"/>
  <path class="cls-1" d="M582.86,1258.48c35.2,58.3,96.7,70.7,158.3,88.6-4,13.2-13.6,23.4-22.1,33.8-10.6,12.8-18.8,27.7-31.5,38.6-3,2.8-7.1,4-9.9,7.1-32.7-8.3-72.5-20.9-95-44.2,35.3-39.4-9.7-70.5,.2-123.9Z"/>
  <path class="cls-1" d="M751.46,1349.78c11.1,2.7,22.2,5.3,33.4,7.4-10.2,25.5-4.2,64.7,4.6,75.5-35.4,7.5-65.6,4.3-100.9-3.3,13.1-5.9,22.1-17.6,30.7-28.7,12-16.3,28.1-32.3,32.2-50.9Z"/>
  <path class="cls-1" d="M893.06,1357.68c.8,4.7,2.6,9.3,4.9,13.5-28.1,26.7-56.8,47-95.8,58.3-.5-2.6-1.9-5.3-4.7-6.1,1-2.4-.3-4.9-1-7.2-5.8-18.4-6.3-38.7-.1-57.1,23.4,4.2,75.3,9.4,96.7-1.4Z"/>
  <path class="cls-1" d="M862.36,1416.48c15.7-9.8,30.1-21.7,43.4-34.6,10.5,11.8,23.5,20.8,35.8,30.6-9.5,4.5-16.8,12.2-24.3,19.4-12.7,13.4,46.8,17.2,62,17.9,5.2,5.7,10.5,11.2,15.6,17.1-18.3-9.8-34-9.4-54.2-3.2-27.4,8.6-46,24.3-47.4,52.6-33.1-39.1-110.2-28.7-124,21.6-2.9-5.5-5.4-11.2-9.2-16.1-21.4-28.5-55.3-29.1-86-11.4-9.4,5.4-17.5,13-23.7,21.9-.6-13.9-10.1-36.9-22.2-46.9-11.2-9.6-33.7-14-62.9,1.2-9.2,4.7-17.4,10.9-24.9,17.9,.7-11,4.4-43.6-20.1-50.7-4.4-1.4-9.1-.5-13.6-.5,11.7-4.2,47.8-19.4,40.5-29-2.1-2.2-4.7-3.8-7.2-5.5,11.7-10.2,24.8-18.8,36.1-29.5,24.2,33.8,172.5,99.2,286.3,27.2m-308.8,5.4c-8.8,4-2.9,21-3.9,29.9-.4,8.2-2.3,17.3,2.1,24.9,1.7,3.2,6.4,3.4,8.9,1,26.6-24.7,32.9-16.9,45.5-25.1,8.5-6.2,4.1-11.4,1.4-12.3-25.2-10-38.2-21-54-18.4m336.8,14.3c-10.1,2.2-19,7.9-29,10.4-8.6,2.2-17.4,4.5-24.8,9.7-5.2,2-4,11.1,1.5,11.7,8,.3,15.9-2.4,43.5,20.5,11.4,10.3,13-19.5,22.1-45.2,1.2-3-.4-7.1-3.7-7.8-3.2-.6-6.5,.1-9.6,.7m-253,18.1c-6,1.1-2,6.1,7.9,36.9,9.4,29.4,18.7,5.7,35.9-2.4,6.2-3.1,13-6.4,16.6-12.7,1.5-2.4,1.7-5.8-.5-7.8-2.2-2.4-5.6-1.9-8.5-2.2-14.2-1.2-27.7-6.2-41.4-9.7-3.2-.9-6.5-2.3-10-2.1m119.6,13.9c-8.1,.4-16.6-.3-24.2,3.1-1.9,1-4.1-.5-6.1,.5-3.3,1.5-4.8,5.9-3.1,9.1,1,1.8,3.1,2.3,4.9,2.9,9.7,3.2,19.3,7.2,27.2,13.7,6.2,5.1,13.6,17.1,25.5,2,13.6-16.6,28.1-29.3,19.3-34.1-12.2-7-29.3,2.3-43.5,2.8Z"/>
  <path class="cls-1" d="M932.96,1432.78c5.3-4.8,10.4-9.7,15.7-14.5,6.4,5.8,12.5,12,18,18.6-5.4,0-32.6-3.9-33.7-4.1Z"/>
  <path class="cls-1" d="M526.16,1432.78c1.8-2.4,3.9-4.5,6.1-6.6,.6,.4,1.3,.9,2,1.4-2.6,1.8-5.3,3.6-8.1,5.2Z"/>
  <path class="cls-1" d="M558.56,1433.78c6.2-.2,27.9,10,33.5,12.6-9.3,4.2-11.9-.1-31.9,16.3,2-15.1,1.4-6.1-1.6-28.9Z"/>
  <path class="cls-1" d="M870.16,1455.28c6.5-2.3,12.7-5.4,19.4-7.2-2.6,8.4-4.7,16.9-7.1,25.3-7.4-5.9-15.5-10.7-24-14.6,3.8-1.3,7.8-2.3,11.7-3.5Z"/>
  <path class="cls-1" d="M490.66,1470.68c16.8-6.6,36.4-4.2,38.4,13.6,2.5,21.1-8.3,46.3,5.6,44,3.1-.5,4.2-3.9,6-5.9,19.4-24.5,86.4-68.9,98,14.5,.9,6.3,3,18.2,9.7,19.7,12.5,3.6,1-19.4,33-37.5,22.3-12.4,49.2-13.3,64.9,6.3,9.2,11.2,13.8,25.3,21.4,37.5,2.8,4.6,11.6,2,11.1-3.5,.1-15.8,.4-38.5,34.8-50.3,60.4-19.6,78.9,32.1,81.5,34,3.6,2.8,10.1,.8,10.5-4,.8-17.1-3.4-35.9,13.9-50.4,16.8-13.7,46.8-23.5,68.6-10,7.2,4.4,13.4,10.2,19.9,15.6,14.4,11.9,18.1,6.6,31.9,25.1-.5,.2-1.7,.7-2.2,.9,2,.4,4,.9,6,1.5-1.2,6,2.1,7.1-16.4,16.6-98.2,46.2-245.7,74.3-368,54.6-109.7-18.5-111.5-28.5-175.1-47.1-11.6-3.4-32.2-10.4-38.6-23.1-.1,.1,35.9-42.1,45.1-52.1m434.7,38.9c-2.2,8-.4,17.1,5,23.5,13.4,4.7,2.2,.7,23.9-6.8,12.1-4.3,24.8-6.5,37.6-7.4,14.7-.4-4.2-30.2-26.3-34.9-17.3-3.5-35.6,8.8-40.2,25.6m-439.5-22.4c-14.7,6.6-27.5,25.2-20,34.2,5.7,1,11.5,.6,17.1,2.4,8.2,2.3,14.2,8.8,21.7,12.6,10.2,5.5,13.5-22.8,12.1-32.3-2.1-15-15.5-23.8-30.9-16.9m107.2,17.9c-46.3,11.2-34.9,41.2-25.7,35.7,13.5-7.7,52.9,13.8,57.1,12.3,13-4.2,2.5-57.4-31.4-48m230.4,12.8c-13.6,4.6-26.4,22.3-21.7,36.4-4.3,7.7,1,12,4.6,11.3,3.4-1.2,28.7-16.5,59.8-12.2,3.3,.5,6.8-2.4,6.8-5.7,.5-6.8-19.9-40.5-49.5-29.8m-145.8,33.6c-2.1,2.7-2.2,6.8,.3,9.3,3.5,4.2,18.6-.7,34.2,1,15.5,2,34.1,9.7,32.7-2.4-.4-16.3-17.9-35.9-34.3-35.9-15,.4-31.9,12.7-32.9,28Z"/>
  <path class="cls-1" d="M649.66,1470.08c10.1,1.5,19.7,5.1,29.8,6.6-7.5,4-16,7.1-21.7,13.8-2.6-6.9-5.4-13.6-8.1-20.4Z"/>
  <path class="cls-1" d="M786.96,1473.98c-2.7,3.1-15.3,17.4-16.4,20.4-5.9-6.4-13-11.5-20.6-15.5,26.9-.8,24.4-4.4,37-4.9Z"/>
  <path class="cls-1" d="M980.06,1507.28c-21.3,2.6-38.6,9.6-45.4,14.2-1.2-23.9,27.4-38.1,45.4-14.2Z"/>
  <path class="cls-1" d="M497.56,1495.28c10.4,1.3,7.4,17.9,5.9,26.2-9.4-6.8-14.2-10-29.2-11.3,5.5-8.6,12.6-16.1,23.3-14.9Z"/>
  <path class="cls-1" d="M617.26,1537.88c-14.3-6.3-29.7-10.4-45.4-10.6,7.7-8,41.5-28.1,45.4,10.6Z"/>
  <path class="cls-1" d="M856.26,1540.18c-15.7-.2-31.3,3.3-45.6,9.6,2.1-18.9,27-34.5,45.6-9.6Z"/>
  <path class="cls-1" d="M732.06,1553.58c-23.2-4.6-15.1-5.5-44.2-3.5,13.4-24.7,36-18.8,44.2,3.5Z"/>
</svg>