<?xml version="1.0" encoding="UTF-8"?>
<svg id="Layer_1" data-name="Layer 1" xmlns="http://www.w3.org/2000/svg" viewBox="0 0 976 456">
  <defs>
    <style>
      .cls-1 {
        fill: #fff;
      }
    </style>
  </defs>
  <path class="cls-1" d="M0,0V456H976V0H0ZM384.5,123.1c-2.7-9.7-8.3-17.5-16.9-23.5s-18.6-9-29.9-9c-13.1,0-24.9,3.8-35.5,11.4-7.9,5.8-13.1,12.7-15.6,20.6s-3.8,23.3-3.8,46.2v15.9l.7,32.9c.3,19.1,.5,30.3,.7,33.6,.3,7.9,1.3,13.7,2.8,17.3,.6,1.4,1.6,2.6,2.8,3.7s3.1,1.9,5.7,2.5c1.1,.2,9.9,.4,26.3,.7v13.2c-23.2-1.3-41.8-1.9-55.9-1.9-11.4,0-32,.6-62,1.9v-13.2l22.5-.2c3.5-.2,6.1-.8,7.9-1.8,1.8-1,3.2-2.3,4.1-3.9,1.7-3.2,2.8-8.8,3.1-16.8,.2-2.1,.6-24.7,1.4-68v-18.5c0-20.4-1.6-35.3-4.7-44.7-3.2-9.4-8.7-16.9-16.6-22.5-7.9-5.6-17.4-8.4-28.5-8.4-9.5,0-18.5,2-26.9,6s-15,9.1-19.6,15.1-7.4,12.4-8.3,19.2c-1.6,10.9-2.4,24-2.4,39.3v14.4c.9,41.1,1.4,63.3,1.4,66.6,.3,7.9,1.3,13.7,2.8,17.3,.6,1.4,1.6,2.6,2.8,3.7s3.2,1.9,5.9,2.5c.9,.2,9.6,.4,26,.7v13.2c-21.8-1.3-40.3-1.9-55.5-1.9-13.5,0-34,.6-61.4,1.9v-13.2l22.5-.2c3.3-.2,5.9-.8,7.7-1.8,1.8-1,3.2-2.3,4.1-3.9,1.7-3.2,2.8-8.8,3.3-16.8,0-2.1,.5-24.7,1.4-68v-28.2c0-12.6-.2-26.2-.7-40.8-.5-9.3-1.2-14.8-2.2-16.6s-2.8-3-5.3-3.9-12.8-1.2-30.8-1.1v-13.5c31.8-4.4,55-10.2,69.6-17.3,3.1-1.6,5.2-2.4,6.4-2.4s2,.4,2.6,1.2,.9,2,.9,3.6c0,1.1-.1,2.4-.2,3.8-.6,7.6-1.1,18.8-1.4,33.8l31.2-28.4c3.9-3.5,6.4-5.4,7.4-5.9,3.6-2.1,8.9-3.9,15.6-5.7,6.8-1.7,13.9-2.6,21.3-2.6,15.2,0,28.7,3.7,40.5,11.1,11.9,7.4,20.9,18.4,27.3,32.9l26-24.1c5.8-5.4,9.9-8.7,12.1-9.9,4.1-2.4,9.9-4.6,17.5-6.6s15.1-3.1,22.5-3.1c18,0,33,4.8,45.2,14.3,12.1,9.6,20,20.4,23.4,32.6,2.2,8.1,3.3,25.4,3.3,52.1v24.6l.3,15.6c-1.8,2.1-3.4,4.3-4.9,6.5-6.1,9.8-9.1,20.4-9.1,32,0,7.9,1.4,15.2,4.3,22,2.9,6.7,6.7,12.3,11.5,16.7,4.4,4,10.3,7.4,17.5,10.3-9.6-.4-16.7-.6-21.3-.6-6.9,0-20.9,.5-41.9,1.4l2.1-65.3,.7-25.6v-20.4c.2-26.3-1.2-44.4-3.8-54.1h0Zm537-29c-18-.2-28.2,.2-30.8,1.1s-4.3,2.2-5.3,3.9c-1,1.7-1.8,7.3-2.2,16.6-.5,14.5-.7,28.1-.7,40.8v28.2c1,43.3,1.4,65.9,1.4,68,.5,8.1,1.6,13.7,3.3,16.8,1,1.6,2.3,2.9,4.1,3.9s4.4,1.6,7.7,1.8l22.5,.2v13.2c-27.4-1.3-47.9-1.9-61.4-1.9-15.2,0-33.7,.6-55.5,1.9v-13.2c16.4-.3,25.1-.5,26-.7,2.7-.6,4.7-1.5,5.9-2.5s2.2-2.2,2.8-3.7c1.6-3.6,2.5-9.4,2.8-17.3,0-3.3,.5-25.5,1.4-66.6v-14.4c0-15.3-.8-28.4-2.4-39.3-1-6.8-3.7-13.2-8.3-19.2s-11.1-11-19.6-15.1c-8.5-4-17.4-6-26.9-6-11.1,0-20.5,2.8-28.5,8.4s-13.4,13.1-16.6,22.5c-3.2,9.4-4.7,24.3-4.7,44.7v18.5c.8,43.3,1.3,65.9,1.4,68,.3,8.1,1.3,13.7,3.1,16.8,1,1.6,2.3,2.9,4.1,3.9s4.5,1.6,7.9,1.8l22.5,.2v13.2c-30-1.3-50.6-1.9-62-1.9-14,0-32.7,.6-55.8,1.9v-13.2c16.4-.3,25.2-.5,26.3-.7,2.5-.6,4.4-1.5,5.7-2.5s2.2-2.2,2.8-3.7c1.6-3.6,2.5-9.4,2.8-17.3,.2-3.3,.4-14.5,.7-33.7l.7-32.9v-15.9c0-22.9-1.3-38.3-3.8-46.2s-7.7-14.8-15.6-20.6c-10.6-7.6-22.4-11.4-35.5-11.4-11.4,0-21.3,3-29.9,9-8.6,6-14.2,13.8-16.9,23.5s-4,27.8-4,54.3v20.4l.7,25.6,2.1,65.3c-9.5-.4-17.6-.8-24.2-1-3.5-4.1-7.6-7.4-12.5-9.8-3.4-1.7-8.3-3.5-14.5-5.5,.1-.1,.3-.2,.4-.2,1.3-1,2.3-2.2,3-3.7,1.6-3.6,2.5-9.4,2.8-17.3,0-2.2,.1-8.2,.3-17.7h-.7c-.7-9.2-1.5-15.3-2.4-18.6-1-3.7-2.5-7-4.2-9.9-1.9-3-4.9-6.1-9.2-9.4-4.2-3.2-9.7-6.1-16.1-8.5-6.6-2.5-14.7-3.7-24.2-3.7-13.8,0-25,4.2-33.5,12.4-8.5,8.3-12.8,18.1-12.8,29.3,0,6.3,1.3,11.8,3.8,16.4,2.5,4.6,6,8.3,10.2,11.2,4.1,2.8,9.7,5.2,17.1,7.4l36.5,9c18.2,4.6,30.8,8.6,37.5,11.9,.2,.1,.3,.2,.5,.3h1c7,3.4,16,8.6,20.3,15.7,4.2,7.1,6.4,15.6,6.4,25.6,0,19.8-8.2,37-24.5,51.8s-38.2,22.1-65.6,22.1c-12.6,0-29.4-1.9-50.3-5.7-11.6-2.2-17.8-3.7-18.7-4.6-.6-.4-.9-1.2-.9-2.2s.1-2.2,.4-3.6c-.1,0-.3-.1-.4-.1,0-.7,.1-1.7,.4-2.7,1.3-6.4,2.2-12.8,2.7-18.9,.4-5.7,.8-17,1-34.4h13.3c.1,8.5,.6,15.2,1.3,20.2,.7,5,2,9.9,3.7,14.6,1.8,4.8,4.5,8.8,8.1,12.1s7.6,5.9,12,7.7c4.3,1.8,8.7,3,13.2,3.6,4.1,.5,10.2,.8,18.3,.9,15-.3,27.7-4.5,37.5-12.6,9.9-8.2,15.1-19.4,15.6-33.2-.2-5.5-1.7-10.5-4.4-14.8-3-4.7-7.3-8.4-13-11-5.6-2.6-17.8-6.1-36.4-10.3-18.6-4.2-27.2-10.8-32.6-12.7-5.7-2.1-7.2-2.9-9.3-4.7-6.1-2.6-11.1-5.6-14.9-9-4.4-4-8-9.2-10.7-15.5-2.7-6.3-4-13.2-4-20.6,0-10.9,2.9-21,8.6-30.1s14.8-16.7,27.2-22.4c12.5-5.8,26.4-8.8,41.2-8.8,8.9,0,19.5,1.3,31.4,3.8,10.8,2.3,19.7,5.1,26.8,8.3-.9,14.4-1.5,29.2-2,44.1h-4.9c.1,1.1,.2,2.3,.2,3.5h12.5c.4-16.9,1.2-33.4,2.2-49.7-4.1-2-8.8-3.9-14.2-5.6v-22c0-26.7,1.1-44.1,3.3-52.1,3.5-12.2,11.3-23,23.4-32.6,12.2-9.6,27.2-14.3,45.2-14.3,7.4,0,14.9,1,22.5,3.1s13.4,4.3,17.5,6.6c2.2,1.3,6.2,4.6,12.1,9.9l26,24.1c6.3-14.5,15.4-25.5,27.3-32.9,11.9-7.4,25.4-11.1,40.5-11.1,7.4,0,14.5,.9,21.3,2.6s12,3.6,15.6,5.7c1,.5,3.4,2.4,7.3,5.9l31,28.4c-.3-15-.8-26.3-1.4-33.8-.2-1.4-.2-2.7-.2-3.8,0-1.6,.3-2.8,.9-3.5s1.5-1.2,2.6-1.2,3.2,.8,6.3,2.4c14.6,7.1,37.8,12.9,69.6,17.3l.6,13.4h0Z"/>
  <path d="M386.5,121c-2.7-9.7-8.3-17.5-16.9-23.5s-18.6-9-29.9-9c-13.1,0-24.9,3.8-35.5,11.4-7.9,5.8-13.1,12.7-15.6,20.6-2.5,7.9-3.8,23.3-3.8,46.2v15.9l.7,32.9c.3,19.1,.5,30.3,.7,33.6,.3,7.9,1.3,13.7,2.8,17.3,.6,1.4,1.6,2.6,2.8,3.7s3.1,1.9,5.7,2.5c1.1,.2,9.9,.4,26.3,.7v13.2c-23.2-1.3-41.8-1.9-55.9-1.9-11.4,0-32,.6-62,1.9v-13.2l22.5-.2c3.5-.2,6.1-.8,7.9-1.8,1.8-1,3.2-2.3,4.1-3.9,1.7-3.2,2.8-8.8,3.1-16.8,.2-2.1,.6-24.7,1.4-68v-18.6c0-20.4-1.6-35.3-4.7-44.7-3.2-9.4-8.7-16.9-16.6-22.5-7.9-5.6-17.4-8.4-28.5-8.4-9.5,0-18.5,2-26.9,6s-15,9.1-19.6,15.1-7.4,12.4-8.3,19.2c-1.6,10.9-2.4,24-2.4,39.3v14.4c.9,41.1,1.4,63.3,1.4,66.6,.3,7.9,1.3,13.7,2.8,17.3,.6,1.4,1.6,2.6,2.8,3.7s3.2,1.9,5.9,2.5c.9,.2,9.6,.4,26,.7v13.2c-21.8-1.3-40.3-1.9-55.5-1.9-13.5,0-34,.6-61.4,1.9v-13.2l22.5-.2c3.3-.2,5.9-.8,7.7-1.8,1.8-1,3.2-2.3,4.1-3.9,1.7-3.2,2.8-8.8,3.3-16.8,0-2.1,.5-24.7,1.4-68v-28.2c0-12.6-.2-26.2-.7-40.8-.5-9.3-1.2-14.8-2.2-16.6s-2.8-3-5.3-3.9-12.8-1.2-30.8-1.1v-13.4c31.8-4.4,55-10.2,69.6-17.3,3.1-1.6,5.2-2.4,6.4-2.4s2,.4,2.6,1.2,.9,2,.9,3.6c0,1.1-.1,2.4-.2,3.8-.6,7.6-1.1,18.8-1.4,33.8l31.2-28.4c3.9-3.5,6.4-5.4,7.4-5.9,3.6-2.1,8.9-3.9,15.6-5.7,6.8-1.7,13.9-2.6,21.3-2.6,15.2,0,28.7,3.7,40.5,11.1,11.9,7.4,20.9,18.4,27.3,32.9l26-24.1c5.8-5.4,9.9-8.7,12.1-9.9,4.1-2.4,9.9-4.6,17.5-6.6s15.1-3.1,22.5-3.1c18,0,33,4.8,45.2,14.3,12.1,9.6,20,20.4,23.4,32.6,2.2,8.1,3.3,25.4,3.3,52.1v24.6l.3,15.6c-1.8,2.1-3.4,4.3-4.9,6.5-6.1,9.8-9.1,20.4-9.1,32,0,7.9,1.4,15.2,4.3,22,2.9,6.7,6.7,12.3,11.5,16.7,4.4,4,10.3,7.4,17.5,10.3-9.6-.4-16.7-.6-21.3-.6-6.9,0-20.9,.5-41.9,1.4l2.1-65.3,.7-25.6v-20.4c.2-26.4-1.2-44.5-3.8-54.1h0Zm537-29c-18-.2-28.2,.2-30.8,1.1s-4.3,2.2-5.3,3.9c-1,1.7-1.8,7.3-2.2,16.6-.5,14.5-.7,28.1-.7,40.8v28.2c1,43.3,1.4,65.9,1.4,68,.5,8.1,1.6,13.7,3.3,16.8,1,1.6,2.3,2.9,4.1,3.9s4.4,1.6,7.7,1.8l22.5,.2v13.2c-27.4-1.3-47.9-1.9-61.4-1.9-15.2,0-33.7,.6-55.5,1.9v-13.2c16.4-.3,25.1-.5,26-.7,2.7-.6,4.7-1.5,5.9-2.5s2.2-2.2,2.8-3.7c1.6-3.6,2.5-9.4,2.8-17.3,0-3.3,.5-25.5,1.4-66.6v-14.5c0-15.3-.8-28.4-2.4-39.3-1-6.8-3.7-13.2-8.3-19.2s-11.1-11-19.6-15.1c-8.5-4-17.4-6-26.9-6-11.1,0-20.5,2.8-28.5,8.4s-13.4,13.1-16.6,22.5c-3.2,9.4-4.7,24.3-4.7,44.7v18.5c.8,43.3,1.3,65.9,1.4,68,.3,8.1,1.3,13.7,3.1,16.8,1,1.6,2.3,2.9,4.1,3.9s4.5,1.6,7.9,1.8l22.5,.2v13.2c-30-1.3-50.6-1.9-62-1.9-14,0-32.7,.6-55.8,1.9v-13.2c16.4-.3,25.2-.5,26.3-.7,2.5-.6,4.4-1.5,5.7-2.5s2.2-2.2,2.8-3.7c1.6-3.6,2.5-9.4,2.8-17.3,.2-3.3,.4-14.5,.7-33.7l.7-32.9v-15.9c0-22.9-1.3-38.3-3.8-46.2s-7.7-14.8-15.6-20.6c-10.6-7.6-22.4-11.4-35.5-11.4-11.4,0-21.3,3-29.9,9-8.6,6-14.2,13.8-16.9,23.5s-4,27.8-4,54.3v20.4l.7,25.6,2.1,65.3c-9.5-.4-17.6-.8-24.2-1-3.5-4.1-7.6-7.4-12.5-9.8-3.4-1.7-8.3-3.5-14.5-5.5,.1-.1,.3-.2,.4-.2,1.3-1,2.3-2.2,3-3.7,1.6-3.6,2.5-9.4,2.8-17.3,0-2.2,.1-8.2,.3-17.7h-.7c-.7-9.2-1.5-15.3-2.4-18.6-1-3.7-2.5-7-4.2-9.9-1.9-3-4.9-6.1-9.2-9.4-4.2-3.2-9.7-6.1-16.1-8.5-6.6-2.5-14.7-3.7-24.2-3.7-13.8,0-25,4.2-33.5,12.4-8.5,8.3-12.8,18.1-12.8,29.3,0,6.3,1.3,11.8,3.8,16.4,2.5,4.6,6,8.3,10.2,11.2,4.1,2.8,9.7,5.2,17.1,7.4l36.5,9c18.2,4.6,30.8,8.6,37.5,11.9,.2,.1,.3,.2,.5,.3h1c7,3.4,16,8.6,20.3,15.7,4.2,7.1,6.4,15.6,6.4,25.6,0,19.8-8.2,37-24.5,51.8s-38.2,22.1-65.6,22.1c-12.6,0-29.4-1.9-50.3-5.7-11.6-2.2-17.8-3.7-18.7-4.6-.6-.4-.9-1.2-.9-2.2s.1-2.2,.4-3.6c-.1,0-.3-.1-.4-.1,0-.7,.1-1.7,.4-2.7,1.3-6.4,2.2-12.8,2.7-18.9,.4-5.7,.8-17,1-34.4h13.3c.1,8.5,.6,15.2,1.3,20.2,.7,5,2,9.9,3.7,14.6,1.8,4.8,4.5,8.8,8.1,12.1s7.6,5.9,12,7.7c4.3,1.8,8.7,3,13.2,3.6,4.1,.5,10.2,.8,18.3,.9,15-.3,27.7-4.5,37.5-12.6,9.9-8.2,15.1-19.4,15.6-33.2-.2-5.5-1.7-10.5-4.4-14.8-3-4.7-7.3-8.4-13-11-5.6-2.6-17.8-6.1-36.4-10.3-18.6-4.2-27.2-10.8-32.6-12.7-5.7-2.1-7.2-2.9-9.3-4.7-6.1-2.6-11.1-5.6-14.9-9-4.4-4-8-9.2-10.7-15.5-2.7-6.3-4-13.2-4-20.6,0-10.9,2.9-21,8.6-30.1s14.8-16.7,27.2-22.4c12.5-5.8,26.4-8.8,41.2-8.8,8.9,0,19.5,1.3,31.4,3.8,10.8,2.3,19.7,5.1,26.8,8.3-.9,14.4-1.5,29.2-2,44.1h-4.9c.1,1.1,.2,2.3,.2,3.5h12.5c.4-16.9,1.2-33.4,2.2-49.7-4.1-2-8.8-3.9-14.2-5.6v-21.8c0-26.7,1.1-44.1,3.3-52.1,3.5-12.2,11.3-23,23.4-32.6,12.2-9.6,27.2-14.3,45.2-14.3,7.4,0,14.9,1,22.5,3.1s13.4,4.3,17.5,6.6c2.2,1.3,6.2,4.6,12.1,9.9l26,24.1c6.3-14.5,15.4-25.5,27.3-32.9,11.9-7.4,25.4-11.1,40.5-11.1,7.4,0,14.5,.9,21.3,2.6,6.8,1.7,12,3.6,15.6,5.7,1,.5,3.4,2.4,7.3,5.9l31,28.4c-.3-15-.8-26.3-1.4-33.8-.2-1.4-.2-2.7-.2-3.8,0-1.6,.3-2.8,.9-3.5s1.5-1.2,2.6-1.2,3.2,.8,6.3,2.4c14.6,7.1,37.8,12.9,69.6,17.3l.6,13.3h0Z"/>
</svg>