<?xml version="1.0" encoding="UTF-8"?>
<svg id="Layer_0_Image" data-name="Layer 0 Image" xmlns="http://www.w3.org/2000/svg" viewBox="0 0 288 288">
  <defs>
    <style>
      .cls-1 {
        fill: #fff;
      }

      .cls-2 {
        fill: #2a5caa;
      }
    </style>
  </defs>
  <path class="cls-2" d="M0,272.88C0,186.96,0,101.04,0,15.12c.16-.57,.37-1.13,.47-1.71C1.66,6.53,6.54,1.65,13.41,.47,13.99,.37,14.55,.16,15.12,0c85.92,0,171.84,0,257.76,0,.57,.16,1.13,.37,1.71,.47,6.87,1.18,11.76,6.06,12.93,12.94,.1,.58,.31,1.14,.47,1.71V273.12c-.16,.48-.38,.96-.47,1.45-1.23,6.94-6.05,11.77-12.96,12.96-.5,.09-.97,.31-1.45,.47h-74.16c.01-.88,.03-1.76,.03-2.64,0-35.72,0-71.44,0-107.15v-1.74c.62,0,1.09,0,1.57,0,11.2,0,22.4,0,33.6,0,2.31,0,2.26,0,2.53-2.3,.72-6.02,1.47-12.04,2.25-18.06,.93-7.2,1.89-14.4,2.83-21.6,.21-1.64,.19-1.64-1.54-1.64-13.2,0-26.4,0-39.6,0h-1.56c-.03-.42-.06-.69-.06-.97,0-9.16-.06-18.32,.04-27.48,.03-2.5,.3-5.03,.79-7.48,1.22-6.09,4.85-10.14,10.97-11.49,3.17-.7,6.47-1.05,9.73-1.13,7.16-.16,14.32-.07,21.48-.03,1.16,0,1.49-.34,1.48-1.49-.05-6.6-.02-13.2-.02-19.8,0-5.6-.02-11.2,.02-16.8,0-.98-.32-1.34-1.3-1.39-1.75-.09-3.5-.39-5.25-.45-9.43-.34-18.86-.76-28.29-.9-8.23-.12-16.22,1.36-23.86,4.53-11.43,4.75-19.83,12.71-25.19,23.84-3.94,8.2-5.69,16.96-5.82,26-.16,11.24-.07,22.48-.09,33.72,0,.42,0,.84,0,1.31-.66,0-1.14,0-1.61,0-11.52,0-23.04,.02-34.56-.03-1.2,0-1.57,.3-1.57,1.54,.04,13.52,.03,27.04,.03,40.56,0,1.54,0,1.54,1.61,1.54,11.52,0,23.04,0,34.56,0h1.55c0,.52,0,.95,0,1.38,0,36.12,0,72.24,0,108.35,0,.6-.04,1.2-.06,1.8H14.88c-.48-.16-.95-.38-1.45-.47-6.91-1.2-11.76-6.05-12.96-12.95-.1-.58-.31-1.14-.47-1.71Z"/>
  <path class="cls-1" d="M153.6,288c.02-.6,.06-1.2,.06-1.8,0-36.12,0-72.24,0-108.35,0-.43,0-.86,0-1.38h-1.55c-11.52,0-23.04,0-34.56,0-1.6,0-1.61,0-1.61-1.54,0-13.52,.01-27.04-.03-40.56,0-1.23,.37-1.54,1.57-1.54,11.52,.04,23.04,.03,34.56,.03,.48,0,.95,0,1.61,0,0-.47,0-.89,0-1.31,.02-11.24-.07-22.48,.09-33.72,.13-9.04,1.88-17.79,5.82-26,5.36-11.14,13.76-19.1,25.19-23.84,7.64-3.17,15.63-4.65,23.86-4.53,9.43,.14,18.86,.56,28.29,.9,1.75,.06,3.5,.36,5.25,.45,.98,.05,1.31,.41,1.3,1.39-.03,5.6-.02,11.2-.02,16.8,0,6.6-.03,13.2,.02,19.8,0,1.15-.32,1.5-1.48,1.49-7.16-.05-14.32-.14-21.48,.03-3.25,.07-6.55,.43-9.73,1.13-6.13,1.34-9.75,5.39-10.97,11.49-.49,2.45-.77,4.98-.79,7.48-.09,9.16-.04,18.32-.04,27.48,0,.27,.03,.55,.06,.97h1.56c13.2,0,26.4,0,39.6,0,1.73,0,1.76,0,1.54,1.64-.93,7.2-1.9,14.4-2.83,21.6-.77,6.02-1.53,12.04-2.25,18.06-.27,2.3-.22,2.3-2.53,2.3-11.2,0-22.4,0-33.6,0-.47,0-.94,0-1.57,0v1.74c0,35.72,0,71.44,0,107.15,0,.88-.02,1.76-.03,2.64h-45.36Z"/>
</svg>