<?xml version="1.0" encoding="UTF-8"?>
<svg id="Layer_1" data-name="Layer 1" xmlns="http://www.w3.org/2000/svg" xmlns:xlink="http://www.w3.org/1999/xlink" viewBox="0 0 641.59 640.26">
  <defs>
    <style>
      .cls-1 {
        fill: #fff;
      }

      .cls-2 {
        fill: url(#radial-gradient);
      }
    </style>
    <radialGradient id="radial-gradient" cx="186.47" cy="638.68" fx="186.47" fy="638.68" r="646.8" gradientUnits="userSpaceOnUse">
      <stop offset="0" stop-color="#ffd776"/>
      <stop offset=".25" stop-color="#f3a554"/>
      <stop offset=".38" stop-color="#f15c3c"/>
      <stop offset=".7" stop-color="#c32f87"/>
      <stop offset=".95" stop-color="#6765ae"/>
      <stop offset=".99" stop-color="#5c6cb3"/>
    </radialGradient>
  </defs>
  <path class="cls-2" d="M641.59,500c0,77.46-62.5,140.26-139.59,140.26H139.59C62.5,640.26,0,577.47,0,500V140.26C0,62.8,62.5,0,139.59,0H502c77.09,0,139.59,62.8,139.59,140.26V500Z"/>
  <path class="cls-1" d="M417.36,561.25H222.32c-74.63,0-135.69-61.06-135.69-135.69V217.73c0-74.63,61.06-135.69,135.69-135.69h195.04c74.63,0,135.69,61.06,135.69,135.69v207.83c0,74.63-61.06,135.69-135.69,135.69Zm0-35.86c26.52,0,51.55-10.43,70.48-29.36s29.36-43.96,29.36-70.48V217.73c0-26.52-10.43-51.55-29.36-70.48s-43.96-29.36-70.48-29.36H222.32c-26.52,0-51.55,10.43-70.48,29.36s-29.36,43.96-29.36,70.48v207.83c0,26.52,10.43,51.55,29.36,70.48s43.96,29.36,70.48,29.36h195.04Z"/>
  <path class="cls-1" d="M449,319.79c0,70.94-57.5,128.44-128.44,128.44s-128.44-57.5-128.44-128.44,57.5-128.44,128.44-128.44,128.44,57.5,128.44,128.44Zm-129.06-84c-46.45,0-84.1,37.65-84.1,84.1s37.65,84.1,84.1,84.1,84.1-37.65,84.1-84.1-37.65-84.1-84.1-84.1Z"/>
  <circle class="cls-1" cx="451.06" cy="189.36" r="30.41"/>
</svg>