<?xml version="1.0" encoding="UTF-8"?>
<svg id="Logo" xmlns="http://www.w3.org/2000/svg" viewBox="0 0 274.38 274.39">
  <defs>
    <style>
      .cls-1 {
        fill: #cb2027;
      }
    </style>
  </defs>
  <path class="cls-1" d="M137.19,0C61.43,0,0,61.42,0,137.19c0,56.18,33.78,104.44,82.12,125.66-.39-9.58-.07-21.08,2.39-31.5,2.64-11.14,17.65-74.76,17.65-74.76,0,0-4.38-8.76-4.38-21.71,0-20.33,11.78-35.51,26.46-35.51,12.48,0,18.51,9.37,18.51,20.6,0,12.54-8,31.31-12.12,48.69-3.44,14.55,7.3,26.42,21.65,26.42,25.99,0,43.5-33.38,43.5-72.94,0-30.07-20.25-52.57-57.09-52.57-41.62,0-67.54,31.04-67.54,65.7,0,11.95,3.52,20.38,9.04,26.91,2.54,3,2.89,4.2,1.97,7.65-.66,2.52-2.17,8.6-2.79,11.01-.91,3.47-3.73,4.72-6.87,3.43-19.17-7.83-28.1-28.82-28.1-52.41,0-38.97,32.87-85.7,98.05-85.7,52.38,0,86.85,37.9,86.85,78.59,0,53.82-29.92,94.03-74.02,94.03-14.81,0-28.74-8.01-33.52-17.1,0,0-7.96,31.61-9.65,37.71-2.91,10.58-8.6,21.15-13.81,29.39,12.34,3.64,25.37,5.63,38.88,5.63,75.76,0,137.19-61.42,137.19-137.2S212.95,0,137.19,0Z"/>
</svg>