<?xml version="1.0" encoding="UTF-8"?>
<svg id="Layer_1" data-name="Layer 1" xmlns="http://www.w3.org/2000/svg" viewBox="0 0 300 300">
  <defs>
    <style>
      .cls-1 {
        fill: #fff;
      }

      .cls-2 {
        fill: #2caae1;
      }
    </style>
  </defs>
  <rect class="cls-2" width="300" height="300"/>
  <path class="cls-1" d="M250,87.97c-7.36,3.26-15.27,5.47-23.57,6.46,8.47-5.08,14.98-13.12,18.04-22.7-7.93,4.7-16.71,8.12-26.06,9.96-7.48-7.97-18.15-12.96-29.95-12.96-22.66,0-41.03,18.37-41.03,41.03,0,3.22,.36,6.35,1.06,9.35-34.1-1.71-64.34-18.05-84.57-42.87-3.53,6.06-5.56,13.11-5.56,20.63,0,14.24,7.24,26.79,18.25,34.15-6.73-.21-13.05-2.06-18.59-5.13,0,.17,0,.34,0,.52,0,19.88,14.14,36.46,32.91,40.23-3.44,.94-7.07,1.44-10.81,1.44-2.64,0-5.21-.26-7.72-.74,5.22,16.3,20.38,28.16,38.33,28.5-14.04,11.01-31.74,17.57-50.96,17.57-3.31,0-6.58-.19-9.79-.57,18.16,11.64,39.73,18.44,62.9,18.44,75.47,0,116.75-62.52,116.75-116.75,0-1.78-.04-3.55-.12-5.31,8.02-5.79,14.97-13.01,20.47-21.24Z"/>
</svg>